<svg width="190" height="190" viewBox="0 0 190 190" fill="none" xmlns="http://www.w3.org/2000/svg">
    <rect width="190" height="190" fill="white" />
    <path
        d="M140.824 56.2793C124.92 56.0102 109.065 51.4723 94.683 43C80.315 51.4723 64.46 56.0102 48.5525 56.2793C45.3106 90.8865 55.7844 132.529 94.683 148C133.596 132.529 144.03 90.8865 140.824 56.2793Z"
        fill="#0A2A5E" />
    <path
        d="M129.989 65.4893C117.82 65.2835 105.688 61.8111 94.684 55.3284C83.689 61.8111 71.557 65.2835 59.3853 65.4893C56.9047 91.97 64.919 123.833 94.684 135.672C124.458 123.833 132.442 91.97 129.989 65.4893Z"
        fill="#DCE3FF" />
    <path
        d="M114.999 83.5462L95 72L75.002 83.5456L75 83.5468V106.641L95 118.187L115 106.641V83.5468L114.999 83.5462ZM113.262 105.637L95 116.18V108.801L83.128 101.948V88.2401L83.13 88.2388L89.116 91.695L95 88.2979L100.885 91.695L100.886 91.696V98.492L95 101.889V108.801L106.872 101.948V88.2401L106.871 88.2394L95 81.3853L83.13 88.2388L76.74 84.5494L95 74.0064L113.26 84.5494L113.262 84.5506V105.637Z"
        fill="#0049BE" />
    <path d="M89.115 91.6959V98.4919L95 101.889V95.0939L89.116 91.6949L89.115 91.6959Z"
        fill="#0049BE" />
</svg>